<svg xmlns="http://www.w3.org/2000/svg" viewBox="0 0 198 195"><defs><clipPath id="a"><path d="M0 0h198v195H0z"/></clipPath></defs><g><g data-name="Layer 2" clip-path="url(#a)"><g data-name="Drawing Surface"><g data-name="Outline no shadow"><path data-name="Path 124" d="M35.063 0h127.875A35.241 35.241 0 01198 35.417v124.166A35.241 35.241 0 01162.938 195H35.063A35.241 35.241 0 010 159.583V35.417A35.241 35.241 0 0135.063 0z" fill="#300"/></g></g><g fill="#ff9a00" data-name="Outlined Mnemonics &amp; Logos"><path data-name="Path 122" d="M95.947 116.693H65.265l-6.243 19.393a1.563 1.563 0 01-1.594 1.2h-15.54q-1.329 0-.93-1.461l26.565-76.512q.4-1.2.8-2.723a28.444 28.444 0 00.531-5.379.822.822 0 01.93-.93H90.9q.928 0 1.063.664l30.151 85.009q.4 1.329-.8 1.328h-17.265a1.228 1.228 0 01-1.328-.93zM70.046 99.954h20.985q-.8-2.655-1.859-5.977t-2.257-7.103l-2.391-7.571q-1.193-3.786-2.193-7.306t-1.791-6.443h-.133a107.339 107.339 0 01-2.789 10.626q-1.862 5.974-3.787 12.221t-3.785 11.553z"/><path data-name="Path 123" d="M140.044 64.362a9.634 9.634 0 01-7.305-2.922 10.508 10.508 0 01-2.79-7.571 9.746 9.746 0 012.989-7.372 10.264 10.264 0 017.372-2.856 9.876 9.876 0 017.5 2.856 10.254 10.254 0 012.723 7.372 10.373 10.373 0 01-2.856 7.571 10.192 10.192 0 01-7.637 2.922zm-9.165 71.593V72.462c0-.8.353-1.2 1.063-1.2h16.338q1.062 0 1.063 1.2v63.49q0 1.329-1.063 1.328h-16.2q-1.201.001-1.201-1.327z"/></g></g></g></svg>
